# AST/ASF file generated using VICON BodyLanguage
# -----------------------------------------------
:version 1.10
:name VICON
:units
  mass 1.0
  length 0.45
  angle deg
:documentation
   .ast/.asf automatically generated from VICON data using
   VICON BodyBuilder and BodyLanguage model FoxedUp or BRILLIANT.MOD
:root
   order TX TY TZ RX RY RZ
   axis XYZ
   position 0 0 0  
   orientation 0 0 0 
:bonedata
  begin
     id 1 
     name lhipjoint
     direction 0.558404 -0.748506 0.357664 
     length 2.4234 
     axis 0 0 0  XYZ
  end
  begin
     id 2 
     name lfemur
     direction 0.34202 -0.939693 0  
     length 7.14567  
     axis 0 0 20  XYZ
    dof rx ry rz
    limits (-160.0 20.0)
           (-70.0 70.0)
           (-60.0 70.0)
  end
  begin
     id 3 
     name ltibia
     direction 0.34202 -0.939693 0   
     length 8.13956   
     axis 0 0 20   XYZ
    dof rx
    limits (-10.0 170.0)
  end
  begin
     id 4 
     name lfoot
     direction 0.0791314 -0.217412 0.972867   
     length 2.00134   
     axis -90 7.62852e-016 20   XYZ
    dof rx rz
    limits (-45.0 90.0)
           (-70.0 20.0)
  end
  begin
     id 5 
     name ltoes
     direction 1.53547e-011 -4.21922e-011 1   
     length 1.00735   
     axis -90 7.62852e-016 20   XYZ
    dof rx
    limits (-90.0 20.0)
  end
  begin
     id 6 
     name rhipjoint
     direction -0.496392 -0.78327 0.374276   
     length 2.31584  
     axis 0 0 0  XYZ 
  end
  begin
     id 7 
     name rfemur
     direction -0.34202 -0.939693 0   
     length 7.47417   
     axis 0 0 -20   XYZ
    dof rx ry rz
    limits (-160.0 20.0)
           (-70.0 70.0)
           (-70.0 60.0)
  end
  begin
     id 8 
     name rtibia
     direction -0.34202 -0.939693 0   
     length 7.69071   
     axis 0 0 -20   XYZ
    dof rx
    limits (-10.0 170.0)
 end
 begin
     id 9 
     name rfoot
     direction -0.103069 -0.28318 0.953512   
     length 2.16135  
     axis -90 -7.62852e-016 -20   XYZ
    dof rx rz
    limits (-45.0 90.0)
           (-20.0 70.0)
  end
  begin
     id 10 
     name rtoes
     direction -1.53581e-011 -4.21904e-011 1   
     length 1.07867   
     axis -90 -7.62852e-016 -20   XYZ
    dof rx
    limits (-90.0 20.0)
  end
  begin
     id 11 
     name lowerback
     direction -0.0258961 0.994776 -0.0987407   
     length 2.19412   
     axis 0 0 0   XYZ
    dof rx ry rz
    limits (-20.0 45.0)
           (-30.0 30.0)
           (-30.0 30.0)
  end
  begin
     id 12 
     name upperback
     direction 0.0402454 0.999185 0.00320666   
     length 2.18445   
     axis 0 0 0   XYZ
    dof rx ry rz
    limits (-20.0 45.0)
           (-30.0 30.0)
           (-30.0 30.0)
  end
  begin
     id 13 
     name thorax
     direction 0.0519376 0.997415 0.0496558   
     length 2.21487   
     axis 0 0 0   XYZ
    dof rx ry rz
    limits (-20.0 45.0)
           (-30.0 30.0)
           (-30.0 30.0)
  end
  begin
     id 14 
     name lowerneck
     direction -0.0921276 0.983211 0.157506   
     length 1.61201   
     axis 0 0 0   XYZ
    dof rx ry rz
    limits (-20.0 45.0)
           (-30.0 30.0)
           (-30.0 30.0)
  end
  begin
     id 15 
     name upperneck
     direction 0.0820814 0.98162 -0.172292   
     length 1.65275   
     axis 0 0 0   XYZ
    dof rx ry rz
    limits (-20.0 45.0)
           (-30.0 30.0)
           (-30.0 30.0)
  end
  begin
     id 16
     name head
     direction 0.0336554 0.996413 -0.0776455  
     length 1.66415  
     axis 0 0 0   XYZ
    dof rx ry rz
    limits (-20.0 45.0)
           (-30.0 30.0)
           (-30.0 30.0)
  end
  begin
     id 17 
     name lclavicle
     direction 0.94696 0.284418 -0.149576  
     length 3.41447  
     axis 0 0 0   XYZ
    dof ry rz
    limits (-20.0 10.0)
           (0.0 20.0)
  end
  begin
     id 18 
     name lhumerus
     direction 1 -0.000130264 -9.81312e-005   
     length 5.19964   
     axis 180 -30 -90   XYZ
    dof rx ry rz
    limits (-60.0 90.0)
           (-90.0 90.0)
           (-90.0 90.0)
  end
  begin
     id 19
     name lradius
     direction 1 -4.48961e-011 1.43854e-026   
     length 3.32189   
     axis 180 -30 -90   XYZ
    dof rx
    limits (-10.0 170.0)
  end
  begin
     id 20
     name lwrist
     direction 1 -4.48958e-011 3.1502e-026   
     length 1.66095   
     axis -1.97692e-014 90 90   XYZ
    dof ry
    limits (-180.0 0.0)
 end
  begin
     id 21 
     name lhand
     direction 1 -4.48927e-011 6.3004e-026   
     length 0.645616   
     axis -4.02019e-014 90 90   XYZ
    dof rx rz
    limits (-90.0 90.0)
           (-45.0 45.0)
  end
  begin
     id 22 
     name lfingers
     direction 1 -4.4904e-011 1.26008e-025   
     length 0.520512   
     axis -8.04039e-014 90 90   XYZ
    dof rx
    limits (0.0 90.0)
  end
  begin
     id 23
     name lthumb
     direction 0.707107 -6.34947e-011 0.707107   
     length 0.747354   
     axis -90 45 2.85299e-015   XYZ
    dof rx rz
    limits (-45.0 45.0)
           (-45.0 45.0)
  end
  begin
     id 24 
     name rclavicle
     direction -0.909391 0.383475 -0.161107   
     length 3.25176  
     axis 0 0 0   XYZ 
    dof ry rz
    limits (-10.0 20.0)
           (-20.0 0.0)
  end
  begin
     id 25 
     name rhumerus
     direction -1 -4.48965e-011 -1.81384e-027  
     length 5.6595   
     axis 180 30 90   XYZ
    dof rx ry rz
    limits (-90.0 60.0)
           (-90.0 90.0)
           (-90.0 90.0)
  end
  begin
     id 26 
     name rradius
     direction -1 -4.48996e-011 -8.09397e-027   
     length 3.37604   
     axis 180 30 90   XYZ
    dof rx
    limits (-10.0 170.0)
  end
  begin
     id 27 
     name rwrist
     direction -1 -4.48927e-011 -1.56669e-026   
     length 1.68802   
     axis 1.21142e-014 -90 -90   XYZ
    dof ry
    limits (-180.0 0.0)
  end
  begin
     id 28
     name rhand
     direction -1 -4.48912e-011 -3.13339e-026   
     length 0.824702   
     axis 1.99937e-014 -90 -90   XYZ
    dof rx rz
    limits (-90.0 90.0)
           (-45.0 45.0)
  end
  begin
     id 29
     name rfingers
     direction -1 -4.49011e-011 -6.26677e-026   
     length 0.664896   
     axis 3.99874e-014 -90 -90   XYZ
    dof rx
    limits (0.0 90.0)
  end
  begin
     id 30
     name rthumb
     direction -0.707107 -6.34931e-011 0.707107   
     length 0.954662   
     axis -90 -45 -2.85299e-015   XYZ
    dof rx rz
    limits (-45.0 45.0)
           (-45.0 45.0)
  end
:hierarchy
  begin
    root lhipjoint rhipjoint lowerback
    lhipjoint lfemur
    lfemur ltibia
    ltibia lfoot
    lfoot ltoes
    rhipjoint rfemur
    rfemur rtibia
    rtibia rfoot
    rfoot rtoes
    lowerback upperback
    upperback thorax
    thorax lowerneck lclavicle rclavicle
    lowerneck upperneck
    upperneck head
    lclavicle lhumerus
    lhumerus lradius
    lradius lwrist
    lwrist lhand lthumb
    lhand lfingers
    rclavicle rhumerus
    rhumerus rradius
    rradius rwrist
    rwrist rhand rthumb
    rhand rfingers
  end

#!OML:ASF F:\VICON\USERDATA\INSTALL\rory3\rory3.ASF
:FULLY-SPECIFIED
:DEGREES
47
root 11.7969 17.814 -38.4793 6.93126 -18.7485 -0.430187
lowerback 2.29908 -1.43377 -5.17883
upperback -3.89077 -2.01446 3.88582
thorax -5.0351 -0.721289 7.13302
lowerneck -6.25271 -10.6369 -19.7357
upperneck 13.8658 -14.1341 12.2803
head 7.58817 -7.06129 5.77638
rclavicle 1.40159e-015 -3.18055e-015
rhumerus -36.2836 -12.9351 -74.9131
rradius 30.0584
rwrist -12.8471
rhand -13.6865 17.6475
rfingers 7.12502
rthumb 12.4314 -11.9628
lclavicle 1.40159e-015 -3.18055e-015
lhumerus -33.0134 10.4512 89.0059
lradius 25.0739
lwrist -10.3901
lhand -2.69959 33.6344
lfingers 7.12502
lthumb 23.0022 62.2818
rfemur -17.2089 3.26211 23.9981
rtibia 39.8454
rfoot -25.9376 -11.4324
rtoes 21.224
lfemur -16.1056 -4.67151 -20.1069
ltibia 38.0399
lfoot -24.6026 11.1123
ltoes 5.00626
48
root 11.7947 17.812 -38.4845 6.95962 -18.683 -0.456854
lowerback 2.36435 -1.45511 -5.18129
upperback -3.91032 -2.04458 3.91742
thorax -5.08733 -0.732956 7.17349
lowerneck -6.09194 -10.6167 -19.7184
upperneck 13.7377 -14.1232 12.2534
head 7.51302 -7.06168 5.77402
rclavicle 1.78184e-014 9.54166e-015
rhumerus -36.2086 -12.9921 -74.8841
rradius 30.0143
rwrist -12.8565
rhand -13.7193 17.5356
rfingers 7.12502
rthumb 12.3997 -12.0767
lclavicle 1.78184e-014 9.54166e-015
lhumerus -32.9911 10.98 88.735
lradius 25.0836
lwrist -11.8414
lhand -1.372 33.6726
lfingers 7.12502
lthumb 24.2756 62.1557
rfemur -17.2471 3.14128 24.0549
rtibia 39.827
rfoot -25.8375 -11.5357
rtoes 20.3108
lfemur -16.1566 -4.6792 -20.0453
ltibia 38.0735
lfoot -23.6447 12.3195
ltoes -5.68489
49
root 11.7921 17.8119 -38.489 6.98689 -18.6428 -0.455463
lowerback 2.36593 -1.45321 -5.18484
upperback -3.90356 -2.04241 3.9126
thorax -5.08148 -0.732222 7.17006
lowerneck -5.67566 -10.5589 -19.7757
upperneck 13.4313 -14.1201 12.4213
head 7.35719 -7.06529 5.86072
rclavicle 4.86471e-014 -7.95139e-016
rhumerus -36.1907 -12.9904 -74.9001
rradius 30.0572
rwrist -12.7368
rhand -13.8157 17.3672
rfingers 7.12502
rthumb 12.3068 -12.2506
lclavicle 4.86471e-014 -7.95139e-016
lhumerus -32.8871 10.6013 88.9562
lradius 24.9234
lwrist -11.0024
lhand -2.70032 32.5499
lfingers 7.12502
lthumb 23.0015 61.1975
rfemur -17.2946 3.05495 24.0713
rtibia 39.8259
rfoot -26.0005 -11.4337
rtoes 20.9559
lfemur -16.2066 -4.68757 -20.015
ltibia 38.1014
lfoot -24.6486 10.8754
ltoes 5.6321
50
root 11.7901 17.8115 -38.4885 6.999 -18.5974 -0.476878
lowerback 2.63807 -1.46978 -5.16631
upperback -4.09598 -2.07397 3.93699
thorax -5.43625 -0.728657 7.20624
lowerneck -5.27483 -10.4491 -19.9367
upperneck 13.4085 -14.0521 12.5544
head 7.29042 -7.04919 5.96003
rclavicle 2.67583e-014 2.22639e-014
rhumerus -36.4359 -13.2152 -74.6429
rradius 29.8823
rwrist -12.2527
rhand -13.752 17.5203
rfingers 7.12502
rthumb 12.3682 -12.0939
lclavicle 2.67583e-014 2.22639e-014
lhumerus -33.2036 10.3849 89.0919
lradius 24.866
lwrist -10.1912
lhand -3.68299 31.9133
lfingers 7.12502
lthumb 22.0584 60.6752
rfemur -17.3122 3.02729 24.111
rtibia 39.8506
rfoot -26.1568 -11.3427
rtoes 21.7421
lfemur -16.2364 -4.64693 -19.9689
ltibia 38.1153
lfoot -23.6538 12.1168
ltoes -4.53894
51
root 11.7878 17.8126 -38.4881 7.05358 -18.5891 -0.520747
lowerback 2.55553 -1.46818 -5.03171
upperback -4.06359 -2.064 3.87388
thorax -5.36113 -0.734698 7.05526
lowerneck -5.40026 -10.4712 -19.8757
upperneck 13.4833 -14.0861 12.6366
head 7.34373 -7.05356 5.96804
rclavicle -2.57473e-014 -2.38542e-015
rhumerus -36.3348 -13.6114 -74.6003
rradius 29.6861
rwrist -11.937
rhand -13.7153 17.7014
rfingers 7.12502
rthumb 12.4036 -11.9106
lclavicle -2.57473e-014 -2.38542e-015
lhumerus -33.1605 10.5225 88.9167
lradius 24.9209
lwrist -10.8136
lhand -3.07814 32.3289
lfingers 7.12502
lthumb 22.639 61.0212
rfemur -17.3775 3.12234 24.1646
rtibia 39.9053
rfoot -26.185 -11.3657
rtoes 21.9576
lfemur -16.301 -4.5115 -19.8972
ltibia 38.1118
lfoot -24.5617 10.7413
ltoes 5.51757
52
root 11.7856 17.8137 -38.4895 7.13521 -18.5909 -0.575065
lowerback 2.38314 -1.44797 -4.86458
upperback -3.96514 -2.02536 3.7809
thorax -5.17068 -0.734328 6.84602
lowerneck -5.45489 -10.5356 -19.748
upperneck 13.299 -14.1818 12.7564
head 7.30925 -7.08107 5.97284
rclavicle 1.21911e-015 -2.38542e-015
rhumerus -36.184 -13.6846 -74.7985
rradius 29.7212
rwrist -12.0963
rhand -13.7457 17.6529
rfingers 7.12502
rthumb 12.3743 -11.9609
lclavicle 1.21911e-015 -2.38542e-015
lhumerus -32.9461 10.3928 88.8582
lradius 24.8844
lwrist -10.6978
lhand -3.43755 32.1224
lfingers 7.12502
lthumb 22.294 60.8564
rfemur -17.4721 3.21552 24.2226
rtibia 39.9733
rfoot -26.2941 -11.259
rtoes 22.7462
lfemur -16.3833 -4.43747 -19.8168
ltibia 38.1083
lfoot -24.38 10.7125
ltoes 4.95424
